<svg xmlns="http://www.w3.org/2000/svg" xmlns:xlink="http://www.w3.org/1999/xlink" width="10" height="18" viewBox="0 0 10 18"><defs><path id="w7ela" d="M338.098 4017.003l-2.268-.004c-2.547 0-4.193 1.74-4.193 4.43v2.043h-2.28a.362.362 0 0 0-.357.367v2.96c0 .202.16.366.356.366h2.28v7.468c0 .202.16.367.357.367h2.975a.362.362 0 0 0 .356-.367v-7.468h2.666a.361.361 0 0 0 .357-.367v-2.959a.373.373 0 0 0-.104-.26.352.352 0 0 0-.252-.107h-2.667v-1.732c0-.832.193-1.255 1.246-1.255h1.528a.362.362 0 0 0 .356-.367v-2.748a.361.361 0 0 0-.356-.367z"/></defs><g><g transform="translate(-329 -4017)"><use fill="#605147" xlink:href="#w7ela"/></g></g></svg>