<svg xmlns="http://www.w3.org/2000/svg" xmlns:xlink="http://www.w3.org/1999/xlink" width="38" height="38" viewBox="0 0 38 38"><defs><path id="2x3pa" d="M500 355.066v5.307c0 3.943-3.207 7.15-7.15 7.15h-2.095a15.682 15.682 0 0 1-3.436 3.836h6.892c.41 0 .742.332.742.742a4.904 4.904 0 0 1-4.898 4.899h-23.157A4.904 4.904 0 0 1 462 372.1c0-.41.332-.742.742-.742h5.11A15.57 15.57 0 0 1 462 359.186v-6.433c0-.41.333-.742.743-.742h5.715a.742.742 0 0 1 0 1.484h-4.973v5.69c0 5 2.669 9.646 6.978 12.174h14.248a14.142 14.142 0 0 0 6.977-12.173v-5.69h-15.289a.742.742 0 1 1 0-1.485h16.032c.41 0 .742.332.742.742v1.571h6.086c.41 0 .742.332.742.742zm-36.434 17.777a3.42 3.42 0 0 0 3.332 2.672h23.157a3.42 3.42 0 0 0 3.332-2.672zm29.116-9.773h.168a2.7 2.7 0 0 0 2.697-2.697v-1.596h-2.375v.409c0 1.317-.166 2.622-.49 3.884zm5.834-7.261h-5.344v1.484h3.117c.41 0 .742.332.742.742v2.338a4.186 4.186 0 0 1-4.18 4.182h-.63c-.185.505-.397 1-.634 1.484h1.263a5.672 5.672 0 0 0 5.666-5.666zm-20.217-7.695l-.396.498a.741.741 0 1 1-1.163-.923l.396-.498a2.529 2.529 0 0 0-.003-3.162l-.386-.485a3.413 3.413 0 0 1-.003-4.266.742.742 0 1 1 1.162.922 1.935 1.935 0 0 0 .002 2.42l.386.485a4.006 4.006 0 0 1 .005 5.009zm4.114 1.669l-.396.498a.74.74 0 0 1-1.043.12.742.742 0 0 1-.12-1.042l.396-.499a2.53 2.53 0 0 0-.003-3.162l-.386-.485a3.413 3.413 0 0 1-.003-4.267.742.742 0 1 1 1.162.923 1.935 1.935 0 0 0 .002 2.42l.386.484a4.007 4.007 0 0 1 .005 5.01zm-8.228 0l-.396.499a.741.741 0 1 1-1.162-.923l.395-.5a2.529 2.529 0 0 0-.002-3.16l-.387-.486a3.413 3.413 0 0 1-.003-4.267.742.742 0 1 1 1.162.923 1.935 1.935 0 0 0 .003 2.42l.386.484a4.007 4.007 0 0 1 .004 5.01zm-.814 2.97a.747.747 0 0 1-.218.525.748.748 0 0 1-1.05 0 .751.751 0 0 1-.216-.525.75.75 0 0 1 .217-.525.747.747 0 0 1 .525-.218.744.744 0 0 1 .742.742zm16.238 6.433a12.13 12.13 0 0 1-3.496 8.473.74.74 0 0 1-1.05.005.742.742 0 0 1-.004-1.05 10.635 10.635 0 0 0 3.066-7.428.742.742 0 1 1 1.484 0zm-6.08 10.454l-.016.01a.742.742 0 1 1-.73-1.293l.018-.01a.742.742 0 0 1 .729 1.293z"/></defs><g><g transform="translate(-462 -339)"><use fill="#628721" xlink:href="#2x3pa"/></g></g></svg>