<svg xmlns="http://www.w3.org/2000/svg" xmlns:xlink="http://www.w3.org/1999/xlink" width="34" height="54" viewBox="0 0 34 54"><defs><path id="s5i2a" d="M824 353.547c0 4.253-1.06 8.334-3.065 11.802-1.876 3.243-4.44 5.731-7.441 7.23v2.57c0 .47-.384.85-.857.85h-11.275a.854.854 0 0 1-.856-.85v-2.57c-3.001-1.499-5.566-3.987-7.441-7.23-2.006-3.468-3.066-7.549-3.066-11.802 0-6.088 2.205-11.828 6.049-15.75 1.91-1.948 2.505-4.828 1.517-7.338l-2.872-7.298a.847.847 0 0 1 .09-.79.858.858 0 0 1 .707-.371h23.02c.283 0 .548.139.707.371.16.232.193.528.09.79l-2.872 7.298c-.988 2.51-.393 5.39 1.517 7.338 3.844 3.922 6.049 9.662 6.049 15.75zm-1.712 0c0-5.648-2.027-10.955-5.563-14.562-2.377-2.426-3.117-6.016-1.885-9.146l2.415-6.137h-20.51l2.415 6.137a8.546 8.546 0 0 1-.127 6.534h9.846c.473 0 .857.38.857.851 0 .47-.384.851-.857.851H798.05a8.687 8.687 0 0 1-.775.91c-3.536 3.607-5.563 8.915-5.563 14.562 0 7.803 3.95 14.864 9.845 17.645H807c.473 0 .856.381.856.851s-.383.851-.856.851h-4.78v1.404h9.561v-2.255l.002-.035a.677.677 0 0 1 .009-.091l.002-.018a.866.866 0 0 1 .041-.15v-.002c.01-.025.02-.05.032-.074a.87.87 0 0 1 .04-.071v-.002a.857.857 0 0 1 .097-.128l.005-.005a.963.963 0 0 1 .122-.11.873.873 0 0 1 .176-.1c5.971-2.735 9.981-9.847 9.981-17.71zm-1.662.248c0 2.328-.43 4.59-1.276 6.724a.857.857 0 0 1-1.594-.625 16.457 16.457 0 0 0 1.158-6.099c0-4.75-2.01-9.22-5.513-12.264a.848.848 0 0 1-.082-1.2.86.86 0 0 1 1.209-.082c3.876 3.367 6.098 8.304 6.098 13.546zm-3.541 10.787a17.598 17.598 0 0 1-1.976 2.231.857.857 0 0 1-1.21-.026.847.847 0 0 1 .026-1.203 15.883 15.883 0 0 0 1.783-2.014.86.86 0 0 1 1.198-.178c.38.28.46.812.179 1.19z"/></defs><g><g transform="translate(-790 -322)"><use fill="#2c1d13" xlink:href="#s5i2a"/></g></g></svg>