<svg xmlns="http://www.w3.org/2000/svg" xmlns:xlink="http://www.w3.org/1999/xlink" width="23" height="23" viewBox="0 0 23 23"><defs><path id="ji45a" d="M1697.989 263.151c.048.374-.065.699-.341.975l-3.239 3.216c-.146.162-.337.3-.572.414a2.373 2.373 0 0 1-.694.22c-.016 0-.065.004-.146.012a3.397 3.397 0 0 1-.316.012c-.309 0-.808-.053-1.498-.159-.69-.105-1.534-.365-2.532-.78-.998-.414-2.13-1.035-3.397-1.863-1.266-.829-2.613-1.966-4.042-3.411-1.136-1.121-2.077-2.193-2.824-3.216-.747-1.024-1.347-1.97-1.802-2.839-.454-.869-.795-1.657-1.022-2.363a12.493 12.493 0 0 1-.463-1.828c-.081-.511-.114-.913-.097-1.206.016-.292.024-.454.024-.487.032-.227.106-.459.22-.694a1.83 1.83 0 0 1 .413-.573l3.238-3.24c.228-.228.487-.341.78-.341.21 0 .397.06.56.182.162.122.3.272.413.45l2.606 4.947c.146.26.186.544.122.853a1.52 1.52 0 0 1-.414.78l-1.194 1.193a.407.407 0 0 0-.085.159.6.6 0 0 0-.036.183c.065.34.21.73.438 1.169.195.39.495.865.901 1.425s.982 1.206 1.729 1.937c.73.747 1.38 1.328 1.948 1.742.568.414 1.042.72 1.424.914.381.195.674.313.876.353l.305.061a.59.59 0 0 0 .158-.036.4.4 0 0 0 .158-.086l1.388-1.413c.292-.26.633-.39 1.023-.39.276 0 .495.05.657.147h.024l4.7 2.777c.34.212.544.48.608.804z"/></defs><g><g transform="translate(-1675 -245)"><use fill="#605147" xlink:href="#ji45a"/></g></g></svg>