<svg xmlns="http://www.w3.org/2000/svg" xmlns:xlink="http://www.w3.org/1999/xlink" width="39" height="55" viewBox="0 0 39 55"><defs><path id="916fa" d="M1777 351.279v.171l-9.617 21.693V377h-19.767v-3.857L1738 351.45v-.171c0-4.396 1.19-8.101 3.537-11.012 2.115-2.622 5.056-4.475 8.75-5.513v-7.92h-.267a2.413 2.413 0 0 1-2.404-2.417 2.413 2.413 0 0 1 2.404-2.417h14.96a2.413 2.413 0 0 1 2.403 2.417 2.413 2.413 0 0 1-2.404 2.417h-.267v7.92c3.694 1.038 6.636 2.89 8.75 5.513 2.348 2.91 3.538 6.616 3.538 11.012zm-12.02-26.057a.804.804 0 0 0 .8-.805.804.804 0 0 0-.8-.806h-14.96a.804.804 0 0 0-.8.806c0 .444.358.805.8.805zm-1.87 3.08v-1.468h-11.22v1.468zm-11.22 1.611v1.468h11.22v-1.468zm13.89 43.864h-16.56v1.611h16.56zm5.664-13.754c-1.447-.04-2.203-.874-2.812-1.55-.59-.654-.961-1.024-1.73-1.024-.77 0-1.14.37-1.73 1.024-.625.693-1.401 1.554-2.918 1.554-1.518 0-2.294-.861-2.918-1.554-.59-.654-.961-1.024-1.73-1.024-.77 0-1.14.37-1.73 1.024-.624.693-1.401 1.554-2.918 1.554-1.517 0-2.294-.861-2.918-1.554-.59-.654-.96-1.024-1.73-1.024s-1.14.37-1.73 1.025c-.624.692-1.4 1.553-2.917 1.553-.036 0-.072-.002-.108-.004l5.383 12.143h17.124zm3.153-7.112l-.195.205c-.647.686-1.452 1.54-2.959 1.54-1.517 0-2.294-.862-2.918-1.554-.59-.654-.961-1.024-1.73-1.024-.77 0-1.14.37-1.73 1.024-.624.692-1.4 1.554-2.918 1.554-1.518 0-2.294-.862-2.918-1.554-.59-.654-.961-1.024-1.73-1.024-.77 0-1.14.37-1.73 1.024-.624.692-1.4 1.554-2.918 1.554-1.517 0-2.294-.862-2.918-1.554-.59-.654-.96-1.024-1.73-1.024-.769 0-1.14.37-1.73 1.024-.624.692-1.4 1.554-2.917 1.554-1.507 0-2.312-.854-2.96-1.54a16.766 16.766 0 0 0-.193-.204l2.298 5.184c.302.157.708.32.962.32.768 0 1.14-.37 1.729-1.024.624-.693 1.4-1.554 2.918-1.554 1.517 0 2.294.861 2.918 1.553.59.655.96 1.025 1.73 1.025.769 0 1.14-.37 1.73-1.025.624-.692 1.4-1.553 2.918-1.553 1.517 0 2.294.861 2.917 1.553.59.655.961 1.025 1.73 1.025.77 0 1.14-.37 1.73-1.025.625-.692 1.401-1.553 2.919-1.553 1.517 0 2.293.861 2.917 1.553.59.655.961 1.025 1.73 1.025.248 0 .463-.04.662-.122zm.786-2.351c-.247-7.466-4.366-12.568-11.667-14.404l-.606-.153v-3.01h-11.22v3.01l-.607.153c-7.3 1.836-11.42 6.938-11.666 14.404 1.002.24 1.624.897 2.143 1.447.625.663 1.016 1.038 1.796 1.038.769 0 1.14-.37 1.73-1.025.624-.692 1.4-1.553 2.917-1.553s2.294.861 2.918 1.553c.59.654.96 1.025 1.73 1.025.769 0 1.14-.37 1.73-1.025.624-.692 1.4-1.553 2.918-1.553 1.517 0 2.293.861 2.917 1.553.59.654.961 1.025 1.73 1.025.77 0 1.14-.37 1.73-1.025.625-.692 1.401-1.553 2.919-1.553 1.517 0 2.294.861 2.918 1.553.59.654.96 1.025 1.73 1.025.78 0 1.171-.375 1.796-1.038.52-.55 1.141-1.208 2.144-1.447zm-15.479-15.992h1.603v1.611h-1.603zm-3.205 0h1.602v1.611h-1.602zm-3.206 0h1.603v1.611h-1.603z"/></defs><g><g transform="translate(-1738 -322)"><use fill="#2c1d13" xlink:href="#916fa"/></g></g></svg>