<svg xmlns="http://www.w3.org/2000/svg" xmlns:xlink="http://www.w3.org/1999/xlink" width="55" height="55" viewBox="0 0 55 55"><defs><path id="je1ea" d="M1461 362.414a8.532 8.532 0 0 1-6.888 8.391V377h-41.224v-6.194a8.531 8.531 0 0 1-6.888-8.392c0-4.72 3.84-8.558 8.559-8.558h11.858c-5.454-2.641-9.225-8.233-9.225-14.688 0-3.843 1.317-7.466 3.743-10.383h-2.882v-5.165h-1.772V322h34.438v1.62h-1.773v5.165h-2.882a16.123 16.123 0 0 1 3.743 10.383c0 6.455-3.77 12.047-9.224 14.688h11.858c4.72 0 8.559 3.839 8.559 8.558zm-27.5-8.559c8.099 0 14.687-6.588 14.687-14.687 0-4.037-1.614-7.804-4.545-10.607l-1.46-1.395h5.144v-3.546h-27.653v3.546h10.383v1.62h-6.888v-.04c-2.81 2.784-4.356 6.473-4.356 10.422 0 8.099 6.59 14.687 14.688 14.687zm-14.586 15.917a8.519 8.519 0 0 1-4.355 1.2h-.051v4.408h4.406zm6.888-3.965h-3.39a8.503 8.503 0 0 1-1.878 2.72v6.853h5.268zm6.888 0h-5.268v9.573h5.268zm6.888 0h-5.268v9.573h5.268zm6.887 2.72a8.503 8.503 0 0 1-1.877-2.72h-3.39v9.573h5.267zm6.027 2.445h-.05c-1.54 0-3.045-.42-4.357-1.2v5.608h4.407zm6.888-8.558a6.947 6.947 0 0 0-6.939-6.939h-37.882a6.947 6.947 0 0 0-6.94 6.94 6.915 6.915 0 0 0 6.166 6.891c.264.032.514.047.774.047a6.907 6.907 0 0 0 4.5-1.672 6.885 6.885 0 0 0 2.037-2.954l.19-.54h24.427l.191.54a6.879 6.879 0 0 0 2.033 2.95 6.91 6.91 0 0 0 4.504 1.676c.26 0 .51-.015.764-.046h.01a6.915 6.915 0 0 0 6.165-6.893zm-44.821-4.254h12.053v1.62h-12.053a2.637 2.637 0 0 0-2.634 2.634 2.637 2.637 0 0 0 2.634 2.634 2.637 2.637 0 0 0 2.633-2.634h1.62a4.259 4.259 0 0 1-4.253 4.254 4.259 4.259 0 0 1-4.254-4.254 4.259 4.259 0 0 1 4.254-4.254zm42.136 4.254a4.259 4.259 0 0 1-4.254 4.254 4.259 4.259 0 0 1-4.254-4.254h1.62a2.637 2.637 0 0 0 2.634 2.634 2.637 2.637 0 0 0 2.634-2.634 2.637 2.637 0 0 0-2.634-2.634h-12.053v-1.62h12.053a4.259 4.259 0 0 1 4.254 4.254zm-24.056-4.254h1.722v1.62h-1.722zm3.444 0h1.722v1.62h-1.722zm-6.888 0h1.722v1.62h-1.722zm-15.497 3.444h1.722v1.62h-1.722zm37.883 0h1.722v1.62h-1.722zm-19.803-34.438h1.722v1.62h-1.722zm3.444 0h1.722v1.62h-1.722zm3.443 0h1.722v1.62h-1.722zm-6.026 20.663v1.62c-6.144 0-11.142-4.998-11.142-11.142h1.62c0 5.25 4.272 9.522 9.522 9.522zm1.722 0h1.722v1.62h-1.722z"/></defs><g><g transform="translate(-1406 -322)"><use fill="#2c1d13" xlink:href="#je1ea"/></g></g></svg>