<svg xmlns="http://www.w3.org/2000/svg" xmlns:xlink="http://www.w3.org/1999/xlink" width="18" height="12" viewBox="0 0 18 12"><defs><path id="m46la" d="M452.996 4030.355a1.274 1.274 0 0 0-.06-.123c-.308-.592-.896-1.319-1.763-2.18l-.018-.02-.01-.009-.009-.01h-.01c-.393-.401-.642-.67-.747-.809-.19-.263-.234-.529-.129-.798.074-.204.35-.635.83-1.292.253-.348.453-.627.6-.838 1.065-1.511 1.526-2.478 1.385-2.898l-.055-.099c-.037-.059-.133-.113-.286-.162-.154-.05-.35-.058-.59-.025l-2.659.02c-.043-.016-.104-.015-.184.005l-.12.03-.047.024-.036.03a.422.422 0 0 0-.102.103.69.69 0 0 0-.092.173c-.29.795-.618 1.534-.988 2.218-.227.407-.436.76-.627 1.06-.191.299-.35.52-.48.66-.13.142-.246.255-.35.34-.105.086-.185.122-.24.109a5.815 5.815 0 0 1-.158-.04.639.639 0 0 1-.207-.241 1.13 1.13 0 0 1-.107-.385 4.426 4.426 0 0 1-.032-.4 8.64 8.64 0 0 1 .005-.472c.006-.204.01-.342.01-.414 0-.25.004-.521.013-.814l.023-.695c.006-.17.01-.352.01-.542 0-.19-.011-.34-.033-.449a1.575 1.575 0 0 0-.097-.315.52.52 0 0 0-.189-.237 1.033 1.033 0 0 0-.31-.133c-.325-.079-.74-.121-1.245-.128-1.144-.013-1.88.066-2.206.237-.13.072-.246.17-.35.296-.111.144-.127.223-.047.236.37.06.63.2.785.424l.055.118c.043.086.086.237.13.454.043.217.07.457.083.72.03.48.03.89 0 1.232-.031.342-.06.608-.088.798a1.673 1.673 0 0 1-.236.68.167.167 0 0 1-.046.05.652.652 0 0 1-.249.05c-.086 0-.19-.047-.314-.139a2.268 2.268 0 0 1-.382-.38 5.075 5.075 0 0 1-.448-.675c-.166-.289-.339-.63-.517-1.025l-.148-.286a25.593 25.593 0 0 1-.378-.804c-.16-.351-.302-.691-.425-1.02a.647.647 0 0 0-.221-.316l-.046-.03a.921.921 0 0 0-.36-.148l-2.529.02c-.258 0-.434.063-.526.188l-.037.06a.336.336 0 0 0-.028.157c0 .072.019.161.056.266.37.927.77 1.821 1.204 2.682.434.86.81 1.555 1.13 2.08.32.526.647 1.022.979 1.489.332.466.552.765.66.897.107.131.192.23.253.295l.231.237c.148.158.365.347.65.567.287.22.604.437.952.65.347.214.752.388 1.213.523.461.135.91.19 1.348.163h1.061c.215-.02.378-.092.489-.217l.037-.05c.024-.039.048-.1.069-.182.021-.082.032-.172.032-.27a3.49 3.49 0 0 1 .06-.765c.046-.226.099-.397.157-.512a1.27 1.27 0 0 1 .198-.291.796.796 0 0 1 .158-.143.506.506 0 0 1 .073-.034c.148-.053.322-.002.522.152.2.155.388.346.563.572.175.227.386.482.632.764.246.283.461.493.646.631l.185.119c.123.078.282.151.48.217a.97.97 0 0 0 .516.049l2.363-.04c.233 0 .415-.04.544-.123.13-.082.206-.172.231-.271a.813.813 0 0 0 .004-.335 1.308 1.308 0 0 0-.064-.261z"/></defs><g><g transform="translate(-435 -4020)"><use fill="#605147" xlink:href="#m46la"/></g></g></svg>