<svg xmlns="http://www.w3.org/2000/svg" xmlns:xlink="http://www.w3.org/1999/xlink" width="18" height="13" viewBox="0 0 18 13"><defs><path id="ija4a" d="M398.727 4026.6c0 .6-.003 1.068-.01 1.405-.007.338-.034.764-.084 1.28-.05.515-.124.976-.222 1.382-.106.456-.333.84-.683 1.153-.35.312-.759.494-1.227.543-1.464.157-3.676.235-6.638.235-2.961 0-5.173-.078-6.638-.235a2.16 2.16 0 0 1-1.231-.543 2.152 2.152 0 0 1-.688-1.153 11.016 11.016 0 0 1-.212-1.382c-.05-.516-.078-.942-.084-1.28-.007-.337-.01-.806-.01-1.406 0-.6.003-1.068.01-1.406.006-.337.034-.764.084-1.279.05-.515.124-.976.222-1.382.106-.456.333-.84.683-1.153.35-.313.758-.494 1.226-.544 1.465-.156 3.677-.234 6.638-.234s5.174.078 6.638.234c.468.05.88.231 1.232.544.352.312.582.697.687 1.153.093.406.163.867.213 1.382.05.515.078.942.084 1.28.007.337.01.806.01 1.405zm-5.065 0c0-.232-.099-.4-.297-.507l-5.065-2.999a.623.623 0 0 0-.643-.019.555.555 0 0 0-.326.525v5.998c0 .238.109.413.327.526.105.05.207.074.306.074a.588.588 0 0 0 .336-.093l5.065-3a.534.534 0 0 0 .297-.505z"/></defs><g><g transform="translate(-381 -4020)"><use fill="#605147" xlink:href="#ija4a"/></g></g></svg>